<svg width="36" height="36" viewBox="0 0 36 36" fill="none" xmlns="http://www.w3.org/2000/svg">
<g filter="url(#filter0_d_246_49)">
<circle cx="18" cy="14" r="14" fill="white"/>
</g>
<path d="M18 4.75993C18.4253 4.75993 18.77 5.10467 18.77 5.52993V7.83993C18.77 8.26519 18.4253 8.60993 18 8.60993C17.5747 8.60993 17.23 8.26519 17.23 7.83993V5.52993C17.23 5.10467 17.5747 4.75993 18 4.75993Z" fill="#EF4444"/>
<path d="M11.4276 7.42757C11.7283 7.12687 12.2159 7.12687 12.5166 7.42757L13.9245 8.83546C14.2252 9.13616 14.2252 9.6237 13.9245 9.9244C13.6238 10.2251 13.1362 10.2251 12.8355 9.9244L11.4276 8.51651C11.1269 8.21581 11.1269 7.72827 11.4276 7.42757Z" fill="#EF4444"/>
<path d="M8.75999 13.9999C8.75999 13.5747 9.10473 13.2299 9.52999 13.2299H11.9721C12.3974 13.2299 12.7421 13.5747 12.7421 13.9999C12.7421 14.4252 12.3974 14.7699 11.9721 14.7699H9.52999C9.10473 14.7699 8.75999 14.4252 8.75999 13.9999Z" fill="#EF4444"/>
<path d="M23.39 13.9999C23.39 13.5747 23.7347 13.2299 24.16 13.2299L26.47 13.2299C26.8953 13.2299 27.24 13.5747 27.24 13.9999C27.24 14.4252 26.8953 14.7699 26.47 14.7699H24.16C23.7347 14.7699 23.39 14.4252 23.39 13.9999Z" fill="#EF4444"/>
<path d="M24.5517 7.46143C24.3307 7.24046 23.9769 7.22673 23.7395 7.42992L17.3028 12.9382C16.6825 13.469 16.6457 14.4157 17.223 14.993C17.8137 15.5836 18.7866 15.5294 19.308 14.8769L24.5961 8.25809C24.7863 8.01998 24.7672 7.67694 24.5517 7.46143Z" fill="#EF4444"/>
<path fill-rule="evenodd" clip-rule="evenodd" d="M15.9422 26.1488C10.1176 25.1694 5.67999 20.1029 5.67999 13.9999C5.67999 7.19578 11.1958 1.67993 18 1.67993C24.8041 1.67993 30.32 7.19578 30.32 13.9999C30.32 16.3352 29.6703 18.5187 28.5417 20.3795C26.382 23.9405 22.4689 26.3199 18.0001 26.3199C17.2989 26.3199 16.6113 26.2614 15.9422 26.1488ZM8.7585 19.5531C11.477 17.9802 14.6334 17.0799 18.0001 17.0799C21.3667 17.0799 24.523 17.9802 27.2415 19.5531C28.2182 17.9312 28.78 16.0312 28.78 13.9999C28.78 8.0463 23.9536 3.21993 18 3.21993C12.0464 3.21993 7.21999 8.0463 7.21999 13.9999C7.21999 16.0312 7.7818 17.9312 8.7585 19.5531Z" fill="#EF4444"/>
<defs>
<filter id="filter0_d_246_49" x="0" y="0" width="36" height="36" filterUnits="userSpaceOnUse" color-interpolation-filters="sRGB">
<feFlood flood-opacity="0" result="BackgroundImageFix"/>
<feColorMatrix in="SourceAlpha" type="matrix" values="0 0 0 0 0 0 0 0 0 0 0 0 0 0 0 0 0 0 127 0" result="hardAlpha"/>
<feOffset dy="4"/>
<feGaussianBlur stdDeviation="2"/>
<feComposite in2="hardAlpha" operator="out"/>
<feColorMatrix type="matrix" values="0 0 0 0 0 0 0 0 0 0 0 0 0 0 0 0 0 0 0.25 0"/>
<feBlend mode="normal" in2="BackgroundImageFix" result="effect1_dropShadow_246_49"/>
<feBlend mode="normal" in="SourceGraphic" in2="effect1_dropShadow_246_49" result="shape"/>
</filter>
</defs>
</svg>
