<svg width="58" height="58" viewBox="0 0 58 58" fill="none" xmlns="http://www.w3.org/2000/svg">
<g filter="url(#filter0_d_246_49)">
<circle cx="29" cy="25" r="25" fill="white"/>
</g>
<path d="M29 8.5C29.7594 8.5 30.375 9.11561 30.375 9.875V14C30.375 14.7594 29.7594 15.375 29 15.375C28.2406 15.375 27.625 14.7594 27.625 14V9.875C27.625 9.11561 28.2406 8.5 29 8.5Z" fill="#EF4444"/>
<path d="M17.2636 13.2636C17.8006 12.7267 18.6712 12.7267 19.2082 13.2636L21.7223 15.7777C22.2592 16.3147 22.2592 17.1853 21.7223 17.7223C21.1853 18.2592 20.3147 18.2592 19.7777 17.7223L17.2636 15.2082C16.7267 14.6712 16.7267 13.8006 17.2636 13.2636Z" fill="#EF4444"/>
<path d="M12.5 25C12.5 24.2406 13.1156 23.625 13.875 23.625H18.2359C18.9953 23.625 19.6109 24.2406 19.6109 25C19.6109 25.7594 18.9953 26.375 18.2359 26.375H13.875C13.1156 26.375 12.5 25.7594 12.5 25Z" fill="#EF4444"/>
<path d="M38.625 25C38.625 24.2406 39.2406 23.625 40 23.625L44.125 23.625C44.8844 23.625 45.5 24.2406 45.5 25C45.5 25.7594 44.8844 26.375 44.125 26.375H40C39.2406 26.375 38.625 25.7594 38.625 25Z" fill="#EF4444"/>
<path d="M40.6994 13.3241C40.3049 12.9295 39.6731 12.905 39.2491 13.2678L27.755 23.104C26.6473 24.052 26.5817 25.7425 27.6126 26.7734C28.6673 27.828 30.4047 27.7313 31.3357 26.566L40.7787 14.7467C41.1184 14.3215 41.0843 13.7089 40.6994 13.3241Z" fill="#EF4444"/>
<path fill-rule="evenodd" clip-rule="evenodd" d="M25.3253 46.6945C14.9243 44.9456 7 35.8982 7 25C7 12.8497 16.8497 3 29 3C41.1503 3 51 12.8497 51 25C51 29.1701 49.8398 33.0692 47.8245 36.3921C43.9679 42.7511 36.9803 47 29.0001 47C27.748 47 26.5203 46.8954 25.3253 46.6945ZM12.4973 34.9164C17.3518 32.1076 22.9882 30.5 29.0001 30.5C35.0119 30.5 40.6483 32.1076 45.5027 34.9163C47.2468 32.0201 48.25 28.6272 48.25 25C48.25 14.3685 39.6315 5.75 29 5.75C18.3685 5.75 9.75 14.3685 9.75 25C9.75 28.6272 10.7532 32.0202 12.4973 34.9164Z" fill="#EF4444"/>
<defs>
<filter id="filter0_d_246_49" x="0" y="0" width="58" height="58" filterUnits="userSpaceOnUse" color-interpolation-filters="sRGB">
<feFlood flood-opacity="0" result="BackgroundImageFix"/>
<feColorMatrix in="SourceAlpha" type="matrix" values="0 0 0 0 0 0 0 0 0 0 0 0 0 0 0 0 0 0 127 0" result="hardAlpha"/>
<feOffset dy="4"/>
<feGaussianBlur stdDeviation="2"/>
<feComposite in2="hardAlpha" operator="out"/>
<feColorMatrix type="matrix" values="0 0 0 0 0 0 0 0 0 0 0 0 0 0 0 0 0 0 0.25 0"/>
<feBlend mode="normal" in2="BackgroundImageFix" result="effect1_dropShadow_246_49"/>
<feBlend mode="normal" in="SourceGraphic" in2="effect1_dropShadow_246_49" result="shape"/>
</filter>
</defs>
</svg>
